<?xml version="1.0" encoding="UTF-8"?>
<svg xmlns="http://www.w3.org/2000/svg" viewBox="0 0 512 512">
  <path fill="#232323" d="M256.05,506l-68.28-35.72,86.55-128.42,96.53-141.64-101.51-1.41L335.72,12.08c48.66,7.12,90.78,20.61,135.22,40.23l-.11,202.34c-1.11,70.17-32.46,132.41-88.21,174.26-39.53,29.67-80.06,53.7-126.56,77.08h0Z"/>
  <path fill="#232323" d="M171.28,457l-25.42-16.18c-46.75-29.75-80.45-75.06-96.85-127.98-5.91-26.79-7.96-52.22-7.95-79.92l.11-179.71C124.44,14.11,216.57-1.62,308.96,9.47l-130.39,197.7-39.49,58.43,104.19.79-71.96,190.62h-.01Z"/>
</svg>