<?xml version="1.0" encoding="UTF-8"?>
<svg xmlns="http://www.w3.org/2000/svg" width="192" height="192" viewBox="0 0 192 192">
    <rect fill="#f28c27" width="192" height="192"/>
    <g>
        <path fill="#fff"
              d="M96.01,154.05l-15.85-8.29,20.1-29.82,22.41-32.89-23.57-.33,15.41-43.36c11.3,1.65,21.08,4.78,31.4,9.34l-.03,46.98c-.26,16.29-7.54,30.74-20.48,40.46-9.18,6.89-18.59,12.47-29.39,17.9h0Z"/>
        <path fill="#fff"
              d="M76.33,142.67l-5.9-3.76c-10.85-6.91-18.68-17.43-22.49-29.72-1.37-6.22-1.85-12.13-1.85-18.56l.02-41.73c19.33-9.08,40.73-12.73,62.18-10.15l-30.28,45.91-9.17,13.57,24.19.18-16.71,44.26h0Z"/>
    </g>
</svg>